<svg width="500" height="500" viewBox="0 0 1562.5 1562.49" version="1.1" id="svg6" xmlns="http://www.w3.org/2000/svg"><path id="p_circle" fill="none" stroke="#000" stroke-width=".79" d="M781.25.39c431.44 0 780.86 349.41 780.86 780.86 0 431.44-349.42 780.85-780.86 780.85S.39 1212.7.39 781.25C.4 349.8 349.81.39 781.25.39Z" style="fill:#000;fill-opacity:1"/><path id="p_hexagon" fill="none" stroke="#000" stroke-width=".79" d="M781.25 1428.02c-11.83 0-24.45-2.37-35.5-7.9l-567.89-283.94c-26.82-13.4-43.38-41.01-43.38-70.99V497.3a77.92 77.92 0 0 1 43.38-70.19l567.9-283.95c11.04-5.52 23.66-8.67 35.49-8.67 11.83 0 24.45 3.15 35.5 8.67l567.89 283.95a77.92 77.92 0 0 1 43.38 70.2v567.9c0 29.97-16.56 57.57-43.38 70.98l-567.9 283.95c-11.04 5.52-23.66 7.89-35.49 7.89z" style="fill:#fff;fill-opacity:1"/><path id="p_cross_bltr" fill="none" stroke="#000" stroke-width="1" d="m923.22 497.3-283.94 567.9" style="stroke-width:35.4936;stroke-linecap:round;stroke-miterlimit:4;stroke-dasharray:none"/><path id="p_cross_tlbr" fill="none" stroke="#000" stroke-width="1" d="m710.26 639.27 141.98 283.95" style="stroke-width:35.4936;stroke-linecap:round;stroke-miterlimit:4;stroke-dasharray:none"/></svg>
