<!-- A sprite that contains all SVG files for alexjorgef.com -->
<svg xmlns="http://www.w3.org/2000/svg" xmlns:xlink="http://www.w3.org/1999/xlink">
  <defs>
    <symbol id="cli" viewBox="0 0 50 50"  fill="none" xmlns="http://www.w3.org/2000/svg"><rect width="50" height="50" rx="6" fill="#EEFEEB"/><path fill="#7AD28D" d="M9 10h30v23H9z"/><path d="M40.042 6H9.958C7.772 6 6 7.763 6 9.937v30.126C6 42.237 7.772 44 9.958 44h30.084C42.228 44 44 42.237 44 40.063V9.937C44 7.763 42.228 6 40.042 6zm-18.65 14.136l-.068.067-.078.056c-.437.313-.937.677-1.526 1.115-.645.478-1.21.9-1.73 1.288-.602.448-1.182.878-1.725 1.28-.549.404-1.068.782-1.542 1.122l-.093.066-.103.048a2.83 2.83 0 01-1.18.271c-.615 0-1.163-.211-1.584-.612a2.116 2.116 0 01-.668-1.573c0-.546.179-1.064.53-1.54l.105-.142.14-.105c.364-.271.794-.589 1.278-.942.49-.36.977-.721 1.446-1.075a130.75 130.75 0 011.475-1.097l.02-.015c-.459-.35-.94-.722-1.429-1.105-.503-.393-.996-.774-1.464-1.133a45.575 45.575 0 01-1.204-.947l-.092-.075-.075-.091c-.412-.504-.62-1.056-.62-1.642 0-.604.223-1.146.647-1.568a2.224 2.224 0 011.604-.644c.313 0 .648.07 1.026.214l.097.037.09.053c.126.076.304.203.759.578.305.251.681.546 1.121.878.457.346.947.727 1.456 1.131.494.394.968.762 1.41 1.095.463.352.861.659 1.183.914l.611.487c.8.628.967 1.366.967 1.874 0 .434-.135 1.086-.784 1.732zm15.242 9.622c-.343.375-.817.639-1.41.787l-.142.035H25.057l-.054-.005c-.898-.081-1.414-.485-1.689-.81-.37-.438-.564-.95-.564-1.479 0-.576.222-1.112.643-1.55.414-.43.985-.678 1.698-.74l.05-.004h10.03l.149.04c.61.158 1.084.46 1.411.894.322.425.484.883.484 1.36a2.16 2.16 0 01-.581 1.472z" fill="#042024"/></symbol>
    <symbol id="discord" viewBox="0 0 50 50" fill="none" xmlns="http://www.w3.org/2000/svg"><rect width="50" height="50" rx="6" fill="#fff"/><path d="M38.169 13.401a31.335 31.335 0 00-7.735-2.399.117.117 0 00-.125.059c-.334.594-.704 1.369-.963 1.978a28.927 28.927 0 00-8.687 0 20.018 20.018 0 00-.978-1.978.122.122 0 00-.124-.059 31.248 31.248 0 00-7.735 2.399.11.11 0 00-.051.044c-4.926 7.36-6.276 14.539-5.614 21.629a.13.13 0 00.05.089c3.25 2.387 6.398 3.836 9.488 4.796a.123.123 0 00.133-.044 22.524 22.524 0 001.942-3.157.12.12 0 00-.066-.168 20.746 20.746 0 01-2.964-1.412.122.122 0 01-.012-.202c.199-.15.398-.305.588-.462a.117.117 0 01.123-.016c6.219 2.839 12.952 2.839 19.097 0a.117.117 0 01.125.015c.19.157.39.313.59.463a.122.122 0 01-.01.202c-.947.553-1.931 1.02-2.966 1.411a.121.121 0 00-.065.169 25.3 25.3 0 001.94 3.156.12.12 0 00.133.045c3.105-.96 6.254-2.41 9.504-4.796a.122.122 0 00.05-.088c.792-8.197-1.328-15.317-5.619-21.629a.096.096 0 00-.05-.045zm-19.47 17.356c-1.873 0-3.416-1.72-3.416-3.83 0-2.111 1.513-3.83 3.415-3.83 1.918 0 3.445 1.734 3.415 3.83 0 2.11-1.512 3.83-3.415 3.83zm12.626 0c-1.872 0-3.415-1.72-3.415-3.83 0-2.111 1.513-3.83 3.415-3.83 1.917 0 3.445 1.734 3.415 3.83 0 2.11-1.498 3.83-3.415 3.83z" fill="#5865F2"/></symbol>
    <symbol id="gatsby" viewBox="0 0 50 50"  fill="none" xmlns="http://www.w3.org/2000/svg"><rect width="50" height="50" rx="6" fill="#E4E2FD"/><path d="M25 44c10.493 0 19-8.507 19-19S35.493 6 25 6 6 14.507 6 25s8.507 19 19 19z" fill="#639"/><path d="M14.414 35.586c-2.85-2.85-4.343-6.65-4.343-10.315L24.864 39.93c-3.8-.136-7.6-1.493-10.45-4.343zm13.843 3.935L10.48 21.743C11.97 15.093 17.943 10.07 25 10.07c5.021 0 9.364 2.443 12.079 6.108l-2.036 1.764C32.736 14.82 29.07 12.786 25 12.786c-5.293 0-9.771 3.393-11.536 8.143l15.607 15.607c3.936-1.357 6.922-4.75 7.872-8.822h-6.514V25h9.5c0 7.057-5.022 13.029-11.672 14.521z" fill="#fff"/></symbol>
    <symbol id="javascript" viewBox="0 0 50 50" fill="none" xmlns="http://www.w3.org/2000/svg"><rect width="50" height="50" rx="6" fill="#FBF7E7"/><path d="M44 6H6v38h38V6z" fill="#F7DF1E"/><path d="M31.526 35.688c.766 1.25 1.762 2.168 3.523 2.168 1.48 0 2.425-.74 2.425-1.761 0-1.225-.971-1.658-2.6-2.37l-.893-.384c-2.577-1.098-4.288-2.473-4.288-5.38 0-2.678 2.04-4.717 5.23-4.717 2.27 0 3.902.79 5.078 2.86l-2.78 1.785c-.613-1.098-1.273-1.53-2.299-1.53-1.046 0-1.709.663-1.709 1.53 0 1.07.664 1.505 2.196 2.168l.893.382c3.034 1.302 4.747 2.628 4.747 5.61 0 3.215-2.526 4.976-5.918 4.976-3.316 0-5.458-1.58-6.507-3.651l2.902-1.686zm-12.614.31c.561.994 1.071 1.836 2.298 1.836 1.173 0 1.913-.46 1.913-2.244V23.448h3.571v12.19c0 3.698-2.168 5.38-5.332 5.38-2.859 0-4.515-1.48-5.357-3.261l2.907-1.76z" fill="#000"/></symbol>
    <symbol id="mdx" viewBox="0 0 50 50" fill="none" xmlns="http://www.w3.org/2000/svg"><rect width="50" height="50" rx="6" fill="#FAF9FB"/><path d="M26.622 18.361v8.633l3.171-3.17 1.6 1.6-5.86 5.862-5.936-5.936 1.6-1.6 3.161 3.16v-8.549h2.264zM8.264 30.846V24.16l4.093 4.094 4.125-4.124v6.649h2.263V18.665l-6.388 6.388L6 18.695v12.151h2.264z" fill="#000"/><path d="M42.4 18l1.6 1.6-4.794 4.795 4.647 4.647-1.601 1.601-4.647-4.647-4.648 4.647-1.6-1.6 4.647-4.648-4.795-4.794L32.81 18l4.796 4.794L42.4 18z" fill="#F9AC00"/></symbol>
    <symbol id="python" viewBox="0 0 50 50" fill="none" xmlns="http://www.w3.org/2000/svg"><rect width="50" height="50" rx="6" fill="#fff"/><path d="M24.569 6c-1.55.008-3.03.14-4.332.37-3.837.678-4.533 2.096-4.533 4.712v3.456h9.065v1.151H12.302c-2.635 0-4.942 1.584-5.664 4.596-.832 3.454-.87 5.608 0 9.214.645 2.684 2.184 4.596 4.818 4.596h3.117v-4.142c0-2.992 2.59-5.631 5.664-5.631h9.055c2.52 0 4.532-2.076 4.532-4.607v-8.633c0-2.456-2.072-4.302-4.532-4.712A28.276 28.276 0 0024.569 6zm-4.903 2.78c.936 0 1.701.776 1.701 1.732 0 .952-.765 1.722-1.7 1.722-.94 0-1.702-.77-1.702-1.722 0-.956.761-1.733 1.701-1.733z" fill="#306998"/><path d="M34.955 15.69v4.025c0 3.121-2.646 5.748-5.663 5.748h-9.055c-2.48 0-4.533 2.123-4.533 4.607v8.632c0 2.457 2.136 3.902 4.533 4.607 2.87.844 5.621.996 9.055 0 2.282-.661 4.532-1.99 4.532-4.607v-3.455H24.77v-1.152h13.587c2.635 0 3.617-1.837 4.533-4.596.947-2.84.906-5.57 0-9.213-.651-2.623-1.895-4.597-4.533-4.597h-3.402zm-5.093 21.86c.94 0 1.701.77 1.701 1.723 0 .955-.761 1.732-1.7 1.732-.937 0-1.702-.777-1.702-1.732 0-.953.765-1.723 1.701-1.723z" fill="#FFD43B"/></symbol>
    <symbol id="react" viewBox="0 0 50 50" fill="none" xmlns="http://www.w3.org/2000/svg"><rect width="50" height="50" rx="6" fill="#ECFBFF"/><path fill-rule="evenodd" clip-rule="evenodd" d="M36.014 18.555c4.833 1.48 7.986 3.87 7.986 6.39 0 2.513-3.137 4.901-7.94 6.382 1.124 4.917.636 8.833-1.54 10.09-.512.294-1.1.434-1.751.434-2.13 0-4.919-1.505-7.738-4.126-2.82 2.637-5.608 4.157-7.738 4.157-.65 0-1.24-.14-1.743-.434-2.184-1.257-2.68-5.18-1.564-10.113C9.152 29.854 6 27.465 6 24.945c0-2.513 3.137-4.894 7.955-6.383-1.123-4.916-.635-8.833 1.541-10.089.511-.295 1.1-.434 1.75-.434V8.03c2.13 0 4.92 1.505 7.739 4.126C27.803 9.52 30.591 8 32.721 8v.008c.64 0 1.226.14 1.728.434 2.184 1.256 2.68 5.18 1.564 10.113zm-3.3-8.826c-1.61.005-3.977 1.292-6.498 3.638a37.815 37.815 0 013.222 3.877c1.743.186 3.4.473 4.919.845.17-.783.31-1.55.395-2.28.356-2.962-.101-5.265-1.154-5.87-.24-.132-.527-.202-.883-.202V9.73zm-8.961 3.645C21.228 11.04 18.85 9.76 17.247 9.76v.008c-.357 0-.659.062-.891.202-1.046.612-1.495 2.916-1.131 5.878.093.721.225 1.474.403 2.25a36.126 36.126 0 014.926-.854 36.62 36.62 0 013.199-3.87zm9.117 9.461a34.94 34.94 0 001.045-3.063 34.915 34.915 0 00-3.175-.612c.379.589.759 1.194 1.115 1.814.364.62.697 1.241 1.015 1.861zM28.5 30.995a41.294 41.294 0 003.47-6.057 40.458 40.458 0 00-1.611-3.086 42.749 42.749 0 00-1.875-2.947 40.26 40.26 0 00-6.986.008 41.294 41.294 0 00-3.47 6.056 40.458 40.458 0 001.611 3.087 42.749 42.749 0 001.875 2.947 40.26 40.26 0 006.986-.008zm5.437-.884a33.23 33.23 0 00-1.069-3.087c-.317.62-.65 1.249-1.006 1.87-.357.627-.736 1.24-1.116 1.837a34.717 34.717 0 003.191-.62zm-11.076 2.706a31.964 31.964 0 002.154 2.482 30.252 30.252 0 002.13-2.482c-.705.04-1.426.055-2.154.055-.72 0-1.433-.024-2.13-.055zm-6.785-2.698c1.015.248 2.076.45 3.176.612-.38-.59-.752-1.194-1.116-1.814-.364-.62-.697-1.241-1.014-1.862a34.94 34.94 0 00-1.046 3.064zM27.13 17.074a31.963 31.963 0 00-2.153-2.482 30.253 30.253 0 00-2.13 2.481A39.285 39.285 0 0125 17.02c.72 0 1.433.023 2.13.055zm-9 3.924c.356-.629.736-1.241 1.115-1.838a37.56 37.56 0 00-3.191.612c.294 1.008.65 2.048 1.069 3.087.317-.62.65-1.241 1.007-1.861zM7.72 24.945c0 1.217 1.773 2.753 4.515 3.924.674.287 1.402.55 2.169.791a36.761 36.761 0 011.72-4.7 37.28 37.28 0 01-1.743-4.722c-.752.24-1.48.496-2.146.783-2.742 1.163-4.515 2.706-4.515 3.924zm7.528 9.135c-.356 2.963.101 5.266 1.154 5.871.233.132.527.202.876.21 1.61 0 3.98-1.288 6.506-3.638a37.815 37.815 0 01-3.222-3.877 37.48 37.48 0 01-4.919-.846c-.17.784-.31 1.551-.395 2.28zm18.396 5.84c1.046-.613 1.495-2.916 1.131-5.878a21.75 21.75 0 00-.403-2.257 36.14 36.14 0 01-4.926.853 36.62 36.62 0 01-3.199 3.87c2.525 2.334 4.903 3.614 6.506 3.614.357 0 .659-.062.891-.202zm1.968-10.268c.75-.24 1.479-.496 2.145-.783 2.742-1.163 4.516-2.707 4.524-3.924 0-1.218-1.774-2.753-4.516-3.924-.682-.287-1.41-.55-2.177-.791a36.762 36.762 0 01-1.72 4.7 37.266 37.266 0 011.743 4.722zm-7.08-4.707a3.542 3.542 0 01-3.54 3.544 3.542 3.542 0 01-3.54-3.544 3.542 3.542 0 013.54-3.544 3.542 3.542 0 013.54 3.544z" fill="#61DAFB"/></symbol>
    <symbol id="typescript" viewBox="0 0 50 50" fill="none" xmlns="http://www.w3.org/2000/svg"><rect width="50" height="50" rx="6" fill="#F3FAFF"/><path fill-rule="evenodd" clip-rule="evenodd" d="M9.71 6h30.58A3.71 3.71 0 0144 9.71v30.58A3.71 3.71 0 0140.29 44H9.71A3.71 3.71 0 016 40.29V9.71A3.71 3.71 0 019.71 6zm19.813 33.954v-3.715a7.142 7.142 0 004.588 1.695c.472 0 .885-.043 1.237-.128.352-.085.647-.203.883-.354.236-.151.412-.33.528-.534.116-.205.175-.428.175-.668 0-.325-.093-.615-.28-.87a3 3 0 00-.76-.709 7.954 7.954 0 00-1.144-.627 39.308 39.308 0 00-1.429-.615c-1.3-.542-2.27-1.204-2.91-1.986-.638-.782-.958-1.726-.958-2.833 0-.867.174-1.612.523-2.235a4.44 4.44 0 011.423-1.538 6.384 6.384 0 012.085-.889 10.72 10.72 0 012.509-.284c.867 0 1.636.052 2.305.157.67.104 1.288.265 1.853.482v3.471a5.6 5.6 0 00-.912-.51 7.23 7.23 0 00-1.016-.366 7.775 7.775 0 00-2.021-.285c-.426 0-.813.04-1.162.122a2.983 2.983 0 00-.883.343c-.24.147-.425.323-.557.528a1.251 1.251 0 00-.198.69c0 .28.074.529.221.75.147.22.356.43.627.627s.6.39.988.58c.387.19.824.385 1.312.587.666.278 1.264.574 1.795.888.53.313.985.667 1.365 1.062s.67.846.87 1.353c.202.507.303 1.097.303 1.77 0 .93-.176 1.71-.529 2.34a4.29 4.29 0 01-1.434 1.533c-.604.39-1.307.671-2.108.841-.802.17-1.648.256-2.538.256-.914 0-1.783-.078-2.608-.232-.825-.155-1.54-.387-2.143-.697zm-1.48-12.87h-4.766V40.66H19.5V27.084h-4.743v-3.049h13.285v3.05z" fill="#3178C6"/></symbol>
    <symbol id="logo" viewBox="0 0 468.75 468.75" fill="none" xmlns="http://www.w3.org/2000/svg">
      <path
        id="p_circle"
        fill="#000"
        stroke="#000"
        strokeWidth=".24"
        d="M234.38.13c129.42 0 234.24 104.82 234.24 234.24 0 129.43-104.82 234.25-234.24 234.25C104.95 468.62.13 363.8.13 234.37.13 104.95 104.95.13 234.38.13Z"
        fillOpacity="1"
      />
      <path
        id="p_hexagon"
        fill="#fff"
        stroke="#000"
        strokeWidth=".24"
        d="M234.38 428.4c-3.55 0-7.34-.71-10.65-2.37L53.37 340.85a23.73 23.73 0 0 1-13.02-21.3V149.2c0-8.99 4.97-17.03 13.02-21.06l170.36-85.18c3.31-1.65 7.1-2.6 10.65-2.6 3.54 0 7.33.95 10.64 2.6l170.37 85.18a23.38 23.38 0 0 1 13 21.06v170.37c0 8.99-4.96 17.27-13 21.3l-170.37 85.17a24.08 24.08 0 0 1-10.64 2.37z"
        fillOpacity="1"
      />
      <path
        id="p_cross_bltr"
        fill="none"
        stroke="#000"
        stroke-width="10.65"
        d="m276.97 149.2-85.19 170.36"
        stroke-linecap="round"
        strokeMiterlimit="4"
        strokeDasharray="none"
      />
      <path
        id="p_cross_tlbr"
        fill="none"
        stroke="#000"
        stroke-width="10.65"
        d="m213.08 191.78 42.6 85.19"
        stroke-linecap="round"
        strokeMiterlimit="4"
        strokeDasharray="none"
      />
    </symbol>
  </defs>
</svg>
